<?xml version="1.0" encoding="UTF-8" standalone="no"?>
<!DOCTYPE svg PUBLIC "-//W3C//DTD SVG 1.1//EN" "http://www.w3.org/Graphics/SVG/1.1/DTD/svg11.dtd">
<svg width="100%" height="100%" viewBox="0 0 29 29" version="1.1" xmlns="http://www.w3.org/2000/svg" xmlns:xlink="http://www.w3.org/1999/xlink" xml:space="preserve" xmlns:serif="http://www.serif.com/" style="fill-rule:evenodd;clip-rule:evenodd;stroke-linejoin:round;stroke-miterlimit:2;">
    <g transform="matrix(1,0,0,0.998599,0,0)">
        <path d="M0,18.756L0,1.326C0,0.594 0.593,0 1.324,0L15.038,0L13.866,1.173L22.345,19.499L25.793,16.045L24.064,12.767L28.488,8.338L28.56,8.376L28.56,27.234C28.56,27.966 27.967,28.56 27.236,28.56L13.296,28.56L15.006,26.847L8.717,14.065L14.804,20.788L17.931,23.919L21.168,20.677L7.779,7.269L3.53,11.524L9.866,23.836L0,18.756ZM20.948,0L27.236,0C27.967,0 28.56,0.594 28.56,1.326L28.56,3.51L20.948,0ZM12.014,28.56L6.56,28.56L0.091,22.685L12.014,28.56ZM22.345,9.498L19.135,3.411L25.223,6.616L22.345,9.498Z"/>
    </g>
</svg>
