<?xml version="1.0" standalone="no"?>
<!DOCTYPE svg PUBLIC "-//W3C//DTD SVG 20010904//EN"
 "http://www.w3.org/TR/2001/REC-SVG-20010904/DTD/svg10.dtd">
<svg version="1.0" xmlns="http://www.w3.org/2000/svg"
 width="700.000000pt" height="700.000000pt" viewBox="0 0 700.000000 700.000000"
 preserveAspectRatio="xMidYMid meet">
<metadata>
Created by potrace 1.14, written by Peter Selinger 2001-2017
</metadata>
<g transform="translate(0.000000,700.000000) scale(0.100000,-0.100000)"
fill="#000000" stroke="none">
<path d="M220 6983 c-100 -34 -170 -106 -204 -208 -15 -46 -16 -227 -14 -2174
l3 -2125 90 -46 c239 -123 683 -351 790 -406 66 -34 210 -108 320 -164 110
-57 263 -135 340 -175 77 -40 239 -123 360 -185 121 -62 275 -141 342 -176 68
-35 125 -64 128 -64 3 0 -14 37 -38 83 -24 45 -90 172 -147 282 -124 241 -244
475 -355 690 -190 368 -237 459 -330 640 -54 105 -130 253 -170 330 -91 176
-213 412 -345 670 -56 110 -111 215 -122 232 l-19 33 514 514 514 514 1616
-1616 1617 -1617 -390 -390 c-214 -214 -392 -387 -394 -385 -42 37 -769 768
-825 829 -42 46 -85 94 -96 105 -11 12 -56 62 -100 111 -44 50 -82 92 -85 95
-11 11 -121 131 -200 220 -47 52 -97 107 -112 123 -15 17 -56 61 -90 100 -35
39 -72 80 -83 91 -11 12 -83 91 -159 176 -77 85 -144 160 -150 165 -6 6 -29
30 -51 55 -22 25 -79 88 -126 140 -48 52 -99 109 -114 125 -14 17 -25 26 -22
20 11 -25 429 -874 760 -1545 377 -766 573 -1163 659 -1339 l91 -183 -202
-202 c-110 -111 -201 -203 -201 -206 0 -3 766 -5 1702 -4 1813 0 1736 -2 1817
47 71 43 135 134 149 212 8 47 7 4603 -1 4612 -4 4 -249 -234 -544 -529 l-535
-535 39 -74 c22 -41 73 -137 114 -214 40 -77 97 -185 126 -240 30 -55 72 -137
96 -183 l42 -82 -417 -417 c-348 -348 -418 -414 -424 -398 -4 11 -24 58 -46
104 -22 47 -51 110 -65 140 -14 31 -68 148 -121 261 -52 113 -110 239 -129
280 -283 610 -470 1014 -507 1093 -25 55 -46 100 -46 102 0 1 -29 64 -65 139
-36 75 -65 138 -65 140 0 2 -27 62 -61 133 -33 70 -80 171 -104 223 -24 52
-70 153 -104 224 -34 70 -61 130 -61 132 0 1 -21 47 -46 101 -26 54 -115 247
-199 428 -84 182 -212 458 -284 614 -111 239 -129 286 -119 300 7 9 68 71 135
139 68 67 123 124 123 127 0 3 -755 5 -1677 5 -1495 -1 -1683 -3 -1723 -17z"/>
<path d="M5150 6958 c77 -36 388 -180 515 -238 28 -13 92 -42 143 -66 52 -24
95 -44 97 -44 2 0 50 -22 107 -49 56 -27 243 -113 413 -191 171 -78 343 -158
384 -177 40 -18 76 -31 79 -28 11 10 8 519 -3 576 -20 102 -88 188 -184 233
-45 21 -56 21 -841 23 l-795 2 85 -41z"/>
<path d="M4627 6158 c6 -7 40 -71 78 -143 37 -71 80 -152 95 -180 15 -27 56
-104 90 -170 34 -66 82 -156 105 -200 23 -44 81 -152 127 -240 47 -88 118
-222 157 -297 40 -76 82 -156 95 -177 l22 -40 344 344 c189 189 341 348 336
352 -9 10 -148 84 -341 184 -77 39 -144 75 -150 79 -5 4 -77 42 -160 85 -82
43 -193 100 -245 128 -242 127 -290 153 -370 195 -171 91 -203 105 -183 80z"/>
<path d="M66 1493 c61 -55 267 -243 389 -353 39 -35 90 -82 115 -105 25 -22
95 -86 155 -140 103 -93 156 -141 209 -190 49 -45 195 -177 222 -201 16 -15
47 -43 69 -63 22 -20 111 -102 199 -181 l159 -144 653 -1 c360 0 654 1 654 3
0 3 -213 108 -1075 532 -516 254 -907 446 -1260 620 -192 95 -390 192 -440
216 l-90 44 41 -37z"/>
</g>
</svg>
